<mxfile host="app.diagrams.net" agent="Mozilla/5.0 (Windows NT 10.0; Win64; x64) AppleWebKit/537.36 (KHTML, like Gecko) Chrome/129.0.0.0 Safari/537.36" version="24.7.7">
  <diagram name="第 1 页" id="kKI63O0-bDx9S1ZZ-VHa">
    <mxGraphModel dx="1426" dy="738" grid="1" gridSize="10" guides="1" tooltips="1" connect="1" arrows="1" fold="1" page="1" pageScale="1" pageWidth="827" pageHeight="1169" math="0" shadow="0">
      <root>
        <mxCell id="0" />
        <mxCell id="1" parent="0" />
        <mxCell id="suQAAgf-hGvL46yexwyH-1" value="Tester" style="shape=umlLifeline;perimeter=lifelinePerimeter;whiteSpace=wrap;html=1;container=1;dropTarget=0;collapsible=0;recursiveResize=0;outlineConnect=0;portConstraint=eastwest;newEdgeStyle={&quot;edgeStyle&quot;:&quot;elbowEdgeStyle&quot;,&quot;elbow&quot;:&quot;vertical&quot;,&quot;curved&quot;:0,&quot;rounded&quot;:0};" vertex="1" parent="1">
          <mxGeometry x="31" y="80" width="100" height="550" as="geometry" />
        </mxCell>
        <mxCell id="suQAAgf-hGvL46yexwyH-2" value="Cabinet Bus" style="shape=umlLifeline;perimeter=lifelinePerimeter;whiteSpace=wrap;html=1;container=1;dropTarget=0;collapsible=0;recursiveResize=0;outlineConnect=0;portConstraint=eastwest;newEdgeStyle={&quot;edgeStyle&quot;:&quot;elbowEdgeStyle&quot;,&quot;elbow&quot;:&quot;vertical&quot;,&quot;curved&quot;:0,&quot;rounded&quot;:0};" vertex="1" parent="1">
          <mxGeometry x="240" y="80" width="100" height="550" as="geometry" />
        </mxCell>
        <mxCell id="suQAAgf-hGvL46yexwyH-3" value="Output Board" style="shape=umlLifeline;perimeter=lifelinePerimeter;whiteSpace=wrap;html=1;container=1;dropTarget=0;collapsible=0;recursiveResize=0;outlineConnect=0;portConstraint=eastwest;newEdgeStyle={&quot;edgeStyle&quot;:&quot;elbowEdgeStyle&quot;,&quot;elbow&quot;:&quot;vertical&quot;,&quot;curved&quot;:0,&quot;rounded&quot;:0};" vertex="1" parent="1">
          <mxGeometry x="440" y="80" width="100" height="550" as="geometry" />
        </mxCell>
        <mxCell id="suQAAgf-hGvL46yexwyH-4" value="Input Board" style="shape=umlLifeline;perimeter=lifelinePerimeter;whiteSpace=wrap;html=1;container=1;dropTarget=0;collapsible=0;recursiveResize=0;outlineConnect=0;portConstraint=eastwest;newEdgeStyle={&quot;edgeStyle&quot;:&quot;elbowEdgeStyle&quot;,&quot;elbow&quot;:&quot;vertical&quot;,&quot;curved&quot;:0,&quot;rounded&quot;:0};" vertex="1" parent="1">
          <mxGeometry x="640" y="80" width="100" height="550" as="geometry" />
        </mxCell>
        <mxCell id="suQAAgf-hGvL46yexwyH-5" value="" style="html=1;verticalAlign=bottom;labelBackgroundColor=none;endArrow=block;endFill=1;rounded=0;" edge="1" parent="1" target="suQAAgf-hGvL46yexwyH-1">
          <mxGeometry width="160" relative="1" as="geometry">
            <mxPoint x="90" y="160" as="sourcePoint" />
            <mxPoint x="170" y="200" as="targetPoint" />
            <Array as="points">
              <mxPoint x="120" y="160" />
              <mxPoint x="120" y="200" />
            </Array>
          </mxGeometry>
        </mxCell>
        <mxCell id="suQAAgf-hGvL46yexwyH-6" value="初始化CAN" style="edgeLabel;html=1;align=center;verticalAlign=middle;resizable=0;points=[];" vertex="1" connectable="0" parent="suQAAgf-hGvL46yexwyH-5">
          <mxGeometry x="-0.0249" y="1" relative="1" as="geometry">
            <mxPoint as="offset" />
          </mxGeometry>
        </mxCell>
        <mxCell id="suQAAgf-hGvL46yexwyH-7" value="" style="html=1;verticalAlign=bottom;labelBackgroundColor=none;endArrow=block;endFill=1;rounded=0;entryX=0.46;entryY=0.365;entryDx=0;entryDy=0;entryPerimeter=0;" edge="1" parent="1" source="suQAAgf-hGvL46yexwyH-1" target="suQAAgf-hGvL46yexwyH-2">
          <mxGeometry width="160" relative="1" as="geometry">
            <mxPoint x="90" y="280" as="sourcePoint" />
            <mxPoint x="250" y="280" as="targetPoint" />
          </mxGeometry>
        </mxCell>
        <mxCell id="suQAAgf-hGvL46yexwyH-8" value="(CAN)Update Output Port" style="edgeLabel;html=1;align=center;verticalAlign=middle;resizable=0;points=[];" vertex="1" connectable="0" parent="suQAAgf-hGvL46yexwyH-7">
          <mxGeometry x="-0.1328" relative="1" as="geometry">
            <mxPoint as="offset" />
          </mxGeometry>
        </mxCell>
        <mxCell id="suQAAgf-hGvL46yexwyH-9" value="" style="html=1;verticalAlign=bottom;labelBackgroundColor=none;endArrow=block;endFill=1;rounded=0;" edge="1" parent="1" target="suQAAgf-hGvL46yexwyH-3">
          <mxGeometry width="160" relative="1" as="geometry">
            <mxPoint x="290" y="320" as="sourcePoint" />
            <mxPoint x="450" y="320" as="targetPoint" />
          </mxGeometry>
        </mxCell>
        <mxCell id="suQAAgf-hGvL46yexwyH-10" value="CAN Data" style="edgeLabel;html=1;align=center;verticalAlign=middle;resizable=0;points=[];" vertex="1" connectable="0" parent="suQAAgf-hGvL46yexwyH-9">
          <mxGeometry x="0.3133" y="1" relative="1" as="geometry">
            <mxPoint x="-21" as="offset" />
          </mxGeometry>
        </mxCell>
        <mxCell id="suQAAgf-hGvL46yexwyH-11" value="" style="html=1;verticalAlign=bottom;labelBackgroundColor=none;endArrow=open;endFill=0;dashed=1;rounded=0;" edge="1" parent="1" source="suQAAgf-hGvL46yexwyH-3">
          <mxGeometry width="160" relative="1" as="geometry">
            <mxPoint x="310" y="480" as="sourcePoint" />
            <mxPoint x="291" y="360" as="targetPoint" />
          </mxGeometry>
        </mxCell>
        <mxCell id="suQAAgf-hGvL46yexwyH-12" value="Output Port Status" style="edgeLabel;html=1;align=center;verticalAlign=middle;resizable=0;points=[];" vertex="1" connectable="0" parent="suQAAgf-hGvL46yexwyH-11">
          <mxGeometry x="0.0955" y="1" relative="1" as="geometry">
            <mxPoint as="offset" />
          </mxGeometry>
        </mxCell>
        <mxCell id="suQAAgf-hGvL46yexwyH-15" value="" style="html=1;verticalAlign=bottom;labelBackgroundColor=none;endArrow=open;endFill=0;dashed=1;rounded=0;exitX=0.5;exitY=0.584;exitDx=0;exitDy=0;exitPerimeter=0;" edge="1" parent="1" source="suQAAgf-hGvL46yexwyH-2" target="suQAAgf-hGvL46yexwyH-1">
          <mxGeometry width="160" relative="1" as="geometry">
            <mxPoint x="500" y="370" as="sourcePoint" />
            <mxPoint x="301" y="370" as="targetPoint" />
          </mxGeometry>
        </mxCell>
        <mxCell id="suQAAgf-hGvL46yexwyH-16" value="(IO)Output Port Status" style="edgeLabel;html=1;align=center;verticalAlign=middle;resizable=0;points=[];" vertex="1" connectable="0" parent="suQAAgf-hGvL46yexwyH-15">
          <mxGeometry x="0.0955" y="1" relative="1" as="geometry">
            <mxPoint as="offset" />
          </mxGeometry>
        </mxCell>
        <mxCell id="suQAAgf-hGvL46yexwyH-17" value="" style="html=1;verticalAlign=bottom;labelBackgroundColor=none;endArrow=block;endFill=1;rounded=0;exitX=0.5;exitY=0.419;exitDx=0;exitDy=0;exitPerimeter=0;" edge="1" parent="1" target="suQAAgf-hGvL46yexwyH-4">
          <mxGeometry width="160" relative="1" as="geometry">
            <mxPoint x="80" y="480" as="sourcePoint" />
            <mxPoint x="289" y="480" as="targetPoint" />
          </mxGeometry>
        </mxCell>
        <mxCell id="suQAAgf-hGvL46yexwyH-18" value="(IO)Update Output Port" style="edgeLabel;html=1;align=center;verticalAlign=middle;resizable=0;points=[];" vertex="1" connectable="0" parent="suQAAgf-hGvL46yexwyH-17">
          <mxGeometry x="-0.1328" relative="1" as="geometry">
            <mxPoint as="offset" />
          </mxGeometry>
        </mxCell>
        <mxCell id="suQAAgf-hGvL46yexwyH-19" value="" style="html=1;verticalAlign=bottom;labelBackgroundColor=none;endArrow=open;endFill=0;dashed=1;rounded=0;" edge="1" parent="1" target="suQAAgf-hGvL46yexwyH-2">
          <mxGeometry width="160" relative="1" as="geometry">
            <mxPoint x="689" y="520" as="sourcePoint" />
            <mxPoint x="490" y="520" as="targetPoint" />
          </mxGeometry>
        </mxCell>
        <mxCell id="suQAAgf-hGvL46yexwyH-20" value="Input Port Status" style="edgeLabel;html=1;align=center;verticalAlign=middle;resizable=0;points=[];" vertex="1" connectable="0" parent="suQAAgf-hGvL46yexwyH-19">
          <mxGeometry x="0.0955" y="1" relative="1" as="geometry">
            <mxPoint as="offset" />
          </mxGeometry>
        </mxCell>
        <mxCell id="suQAAgf-hGvL46yexwyH-21" value="" style="html=1;verticalAlign=bottom;labelBackgroundColor=none;endArrow=open;endFill=0;dashed=1;rounded=0;exitX=0.5;exitY=0.584;exitDx=0;exitDy=0;exitPerimeter=0;" edge="1" parent="1">
          <mxGeometry width="160" relative="1" as="geometry">
            <mxPoint x="289" y="560" as="sourcePoint" />
            <mxPoint x="80" y="560" as="targetPoint" />
          </mxGeometry>
        </mxCell>
        <mxCell id="suQAAgf-hGvL46yexwyH-22" value="(CAN Cyclical)Intput Port Status" style="edgeLabel;html=1;align=center;verticalAlign=middle;resizable=0;points=[];" vertex="1" connectable="0" parent="suQAAgf-hGvL46yexwyH-21">
          <mxGeometry x="0.0955" y="1" relative="1" as="geometry">
            <mxPoint x="10" as="offset" />
          </mxGeometry>
        </mxCell>
      </root>
    </mxGraphModel>
  </diagram>
</mxfile>
